
<svg xmlns="http://www.w3.org/2000/svg" version="1.1" xmlns:xlink="http://www.w3.org/1999/xlink" preserveAspectRatio="none" x="0px" y="0px" width="210px" height="630px" viewBox="0 0 210 630">
<defs>
<g id="Layer0_0_MEMBER_0_MEMBER_0_MEMBER_0_MEMBER_0_FILL">
<path fill="#FEFFFE" stroke="none" d="
M 47.5 30.5
Q 45.5 29.5 43.5 29.5 44.75 14 29.5 15.5 22.45 20.6 23.5 29.5 20.5 29.1 19 31.5 17.95 41.1 19 50.5
L 20.5 52
Q 33.9 53.3 47.5 51.5 49.45 41 47.5 30.5
M 39.5 29.5
L 27.5 29.5
Q 26.9 23.2 31.5 19.5 40.4 20.25 39.5 29.5 Z"/>
</g>

<g id="Layer0_1_MEMBER_0_MEMBER_0_MEMBER_0_FILL">
<path fill="#FF0000" fill-opacity="0" stroke="none" d="
M 70 490
L 0 490 0 560 70 560 70 490 Z"/>
</g>

<g id="Layer0_2_MEMBER_0_MEMBER_0_MEMBER_0_FILL">
<path fill="#FFFFFF" stroke="none" d="
M 59.5 525
L 59.5 524.85 36.5 524.85 36.5 500.6 35 500.5 33.5 500.6 33.5 524.85 10.5 524.85 10.5 525
Q 10.5 535.2 17.7 542.3 24.75 549.5 35 549.5 45.2 549.5 52.3 542.3 59.5 535.2 59.5 525
M 30.9 516.15
L 30.9 501.9 17 509 30.9 516.15 Z"/>
</g>

<g id="Layer0_3_MEMBER_0_MEMBER_0_MEMBER_0_FILL">
<path fill="#FF0000" fill-opacity="0" stroke="none" d="
M 210 490
L 210 420 140 420 140 490 210 490 Z"/>
</g>

<g id="Layer0_4_MEMBER_0_MEMBER_0_MEMBER_0_MEMBER_0_FILL">
<path fill="#FFFFFF" stroke="none" d="
M 163.55 460.8
Q 163.55 459.6 162.65 458.7 161.7 457.85 160.55 457.85 159.4 457.85 158.45 458.7 157.6 459.65 157.6 460.8 157.6 462 158.45 462.95 159.4 463.8 160.55 463.8 161.7 463.8 162.65 462.95 163.55 462.05 163.55 460.8
M 192.85 467.8
Q 192.85 463.3 189.55 459.85 186.25 456.6 181.7 456.6 179.35 456.6 177.35 457.45
L 170.55 469
Q 170.95 473 173.75 475.8 177.1 479.2 181.7 479.2 186.25 479.2 189.55 475.8 192.85 472.5 192.85 467.8
M 187.2 435.8
Q 188.15 434.4 189.15 434.25 190.65 433.95 192.4 435.95 193.2 436.75 193.65 437.65 195.9 441.25 193.3 445.65 193.15 445.8 193.05 446.3 194.9 443.7 195.95 441.1
L 196 441
Q 196.9 438.65 196.1 436.55 195.4 434.65 194.7 433.55 190.45 426.4 184.15 436.3
L 161.2 475.9
Q 154.9 479.05 151.2 476.1 154.95 479.8 158.2 479.55
L 159.6 479.3
Q 161.55 478.6 163.15 476.5
L 187.2 435.8
M 165.15 440
Q 165.15 442.85 167.05 444.75 169.05 446.8 171.85 446.8 174.55 446.8 176.5 444.75 178.55 442.8 178.55 440 178.55 437.3 176.5 435.25 174.55 433.3 171.85 433.3 169 433.3 167.05 435.25 165.15 437.2 165.15 440 Z"/>
</g>

<g id="Layer0_5_MEMBER_0_MEMBER_0_MEMBER_0_FILL">
<path fill="#FF0000" fill-opacity="0" stroke="none" d="
M 140 490
L 140 420 70 420 70 490 140 490 Z"/>
</g>

<g id="Layer0_6_MEMBER_0_MEMBER_0_MEMBER_0_MEMBER_0_FILL">
<path fill="#FFFFFF" stroke="none" d="
M 111.5 444.15
Q 108.15 439.8 103.4 439.8 98.8 439.8 95.4 444.15
L 94.5 445.5
Q 93.35 445.25 92.25 445.25 86.9 445.25 83.15 450.15 80.1 454.2 79.5 459.5
L 79 459.5
Q 76.9 459.5 75.25 460.85 77.55 466.95 82.35 471.75 91.4 480.8 104.05 480.8 116.75 480.8 125.7 471.75 131.4 466.15 133.5 459 131.7 457 129.25 457 128.6 457 127.75 457.25 127.15 453.9 125.05 451.25 122.05 447.25 117.8 447.25 115.75 447.25 113.75 448.3 112.85 446.05 111.5 444.15
M 131 439.65
Q 127.25 434.7 121.95 434.7 120.75 434.7 119.6 435 119.3 434.35 118.75 433.65 115.4 429.25 110.75 429.25 105.95 429.25 102.65 433.65 101.6 435.15 100.8 436.75 103.25 435.15 106 435.15 110.65 435.15 114 439.5 115.6 441.75 116.3 443.65 118.1 442.65 120.35 442.65 124.6 442.65 127.6 446.55 129.7 449.25 130.3 452.55 131.3 452.35 131.75 452.35 133.35 452.35 134.6 453.1 134.75 451.7 134.75 450.15
L 134.75 449 134.6 449
Q 134.1 443.65 131 439.65 Z"/>
</g>

<g id="Layer0_7_MEMBER_0_MEMBER_0_MEMBER_0_FILL">
<path fill="#FF0000" fill-opacity="0" stroke="none" d="
M 70 420
L 0 420 0 490 70 490 70 420 Z"/>
</g>

<g id="Layer0_8_MEMBER_0_MEMBER_0_MEMBER_0_MEMBER_0_MEMBER_0_FILL">
<path fill="#FFFFFF" stroke="none" d="
M 58.3 442.85
Q 58.3 440.95 56.1 440
L 28.7 427.75
Q 27.8 427.4 27.25 427.35 25.4 427.15 24.65 429.35
L 11.5 465.6
Q 11.25 466.35 11.25 466.85
L 11.25 467
Q 11.25 468.8 13.55 469.85
L 40.9 482 42.35 482.45
Q 44.2 482.6 44.95 480.45
L 58.1 444.2
Q 58.3 443.45 58.3 442.85
M 26.5 436.1
Q 26.95 434.95 28.2 435.5
L 51.75 445.9
Q 53 446.5 52.5 447.65
L 50.5 453.3
Q 50.05 454.5 48.9 453.9
L 25.3 443.4
Q 24.05 442.85 24.5 441.75
L 26.5 436.1
M 34 456.25
Q 34.3 456.8 34.05 457.5 33.9 458.1 33.25 458.25 32.55 458.45 32.05 458.3
L 21.9 453.7
Q 21.3 453.4 21 452.8 20.7 452.2 20.9 451.65 21.2 451 21.65 450.85 22.35 450.55 22.95 450.85
L 33.15 455.35
Q 33.7 455.6 34 456.25
M 33.1 464.85
Q 32.55 465 31.85 464.8
L 19.85 459.4
Q 19.2 459.1 19 458.5 18.7 457.9 18.95 457.35 19.1 456.8 19.7 456.5 20.3 456.35 20.85 456.6
L 32.9 461.9
Q 33.45 462.2 33.85 462.8 34.05 463.35 33.9 464 33.65 464.55 33.1 464.85
M 16.8 463.1
Q 17 462.5 17.6 462.3 18.2 462 18.75 462.3
L 41.15 472.25
Q 41.75 472.55 42.05 473.15 42.35 473.7 42.1 474.25 41.9 474.95 41.35 475.15 40.7 475.4 40.1 475.1
L 17.75 465.15
Q 17.2 464.85 16.8 464.25 16.6 463.7 16.8 463.1 Z"/>
</g>
</defs>

<g transform="matrix( 1, 0, 0, 1, 0,0) ">
<use xlink:href="#Layer0_0_MEMBER_0_MEMBER_0_MEMBER_0_MEMBER_0_FILL"/>
</g>

<g transform="matrix( 1, 0, 0, 1, 0,0) ">
<use xlink:href="#Layer0_1_MEMBER_0_MEMBER_0_MEMBER_0_FILL"/>
</g>

<g transform="matrix( 0.9659271240234375, 0.2588043212890625, -0.2588043212890625, 0.9659271240234375, 137.05,8.85) ">
<use xlink:href="#Layer0_2_MEMBER_0_MEMBER_0_MEMBER_0_FILL"/>
</g>

<g transform="matrix( 1, 0, 0, 1, 0,0) ">
<use xlink:href="#Layer0_3_MEMBER_0_MEMBER_0_MEMBER_0_FILL"/>
</g>

<g transform="matrix( 1, 0, 0, 1, 0,0) ">
<use xlink:href="#Layer0_4_MEMBER_0_MEMBER_0_MEMBER_0_MEMBER_0_FILL"/>
</g>

<g transform="matrix( 1, 0, 0, 1, 0,0) ">
<use xlink:href="#Layer0_5_MEMBER_0_MEMBER_0_MEMBER_0_FILL"/>
</g>

<g transform="matrix( 1, 0, 0, 1, 0,0) ">
<use xlink:href="#Layer0_6_MEMBER_0_MEMBER_0_MEMBER_0_MEMBER_0_FILL"/>
</g>

<g transform="matrix( 1, 0, 0, 1, 0,0) ">
<use xlink:href="#Layer0_7_MEMBER_0_MEMBER_0_MEMBER_0_FILL"/>
</g>

<g transform="matrix( 1, 0, 0, 1, 0,0) ">
<use xlink:href="#Layer0_8_MEMBER_0_MEMBER_0_MEMBER_0_MEMBER_0_MEMBER_0_FILL"/>
</g>
</svg>
