<?xml version="1.0" encoding="UTF-8"?>
<!DOCTYPE svg PUBLIC "-//W3C//DTD SVG 1.1//EN" "http://www.w3.org/Graphics/SVG/1.1/DTD/svg11.dtd">
<svg xmlns="http://www.w3.org/2000/svg" version="1.1" width="410px" height="77px" style="shape-rendering:geometricPrecision; text-rendering:geometricPrecision; image-rendering:optimizeQuality; fill-rule:evenodd; clip-rule:evenodd" xmlns:xlink="http://www.w3.org/1999/xlink">
<g><path style="opacity:0.71" fill="#aaaaaa" d="M 399.5,-0.5 C 399.833,-0.5 400.167,-0.5 400.5,-0.5C 400.833,0.833333 401.167,0.833333 401.5,-0.5C 401.833,-0.5 402.167,-0.5 402.5,-0.5C 403.5,0.833333 404.5,0.833333 405.5,-0.5C 406.167,-0.5 406.833,-0.5 407.5,-0.5C 407.833,0.5 408.5,1.16667 409.5,1.5C 409.5,2.5 409.5,3.5 409.5,4.5C 408.069,6.26825 406.403,6.93491 404.5,6.5C 403.855,7.73207 403.689,9.06541 404,10.5C 403.059,8.93864 401.892,7.60531 400.5,6.5C 393.858,8.93646 392.691,6.93646 397,0.5C 398.516,3.05146 399.349,2.71813 399.5,-0.5 Z"/></g>
<g><path style="opacity:0.911" fill="#595959" d="M 379.5,31.5 C 379.167,31.5 378.833,31.5 378.5,31.5C 378.891,27.6166 378.224,23.95 376.5,20.5C 373.669,19.1261 371.336,19.7927 369.5,22.5C 369.55,21.1524 369.217,19.6524 368.5,18C 366.005,17.8425 363.672,17.6759 361.5,17.5C 363.716,11.2852 367.716,6.61852 373.5,3.5C 373.88,5.02072 374.046,6.68739 374,8.5C 377.618,11.4644 380.451,10.7977 382.5,6.5C 383.5,7.16667 384.5,7.83333 385.5,8.5C 386.451,7.67443 387.451,7.50776 388.5,8C 386.76,12.4525 388.427,14.6191 393.5,14.5C 394.167,14.1667 394.833,13.8333 395.5,13.5C 396.23,11.9938 396.563,10.6605 396.5,9.5C 397.971,10.3805 398.804,11.7139 399,13.5C 399.667,18.5 399.667,23.5 399,28.5C 396.333,24.5 393.667,24.5 391,28.5C 390.411,22.5377 387.744,21.2044 383,24.5C 381.295,26.5766 380.128,28.91 379.5,31.5 Z"/></g>
<g><path style="opacity:0.843" fill="#000000" d="M 49.5,5.5 C 50.8333,5.5 52.1667,5.5 53.5,5.5C 52.9677,13.8921 51.9677,22.2254 50.5,30.5C 57.0898,30.189 63.5898,30.5223 70,31.5C 69.1031,44.5574 67.4364,57.5574 65,70.5C 63.951,72.1066 62.451,72.7733 60.5,72.5C 61.3781,60.5203 63.0448,48.687 65.5,37C 58.5863,36.814 51.7529,36.314 45,35.5C 45.6508,25.405 47.1508,15.405 49.5,5.5 Z"/></g>
<g><path style="opacity:0.739" fill="#000000" d="M 58.5,14.5 C 63.5197,13.905 65.1864,15.905 63.5,20.5C 61.604,21.4656 59.604,21.7989 57.5,21.5C 57.298,19.0504 57.6314,16.717 58.5,14.5 Z"/></g>
<g><path style="opacity:0.838" fill="#000000" d="M 278.5,24.5 C 281.833,24.5 285.167,24.5 288.5,24.5C 287.989,37.4055 286.655,50.2389 284.5,63C 284.181,67.0905 285.514,68.0905 288.5,66C 290.037,61.6324 291.203,57.1324 292,52.5C 294.48,50.9103 296.313,51.4103 297.5,54C 296.926,59.5555 295.259,64.7222 292.5,69.5C 286.698,75.3051 281.698,74.8051 277.5,68C 279.88,55.2225 281.88,42.3891 283.5,29.5C 280.901,29.5494 278.734,30.5494 277,32.5C 275.377,35.3269 274.21,38.3269 273.5,41.5C 268.916,43.0285 267.416,41.3618 269,36.5C 270.194,30.8195 273.36,26.8195 278.5,24.5 Z"/></g>
<g><path style="opacity:0.827" fill="#000000" d="M 213.5,25.5 C 214.833,25.5 216.167,25.5 217.5,25.5C 216.288,41.9397 213.621,58.1064 209.5,74C 208.552,74.4828 207.552,74.6495 206.5,74.5C 207.857,58.0255 210.19,41.6921 213.5,25.5 Z"/></g>
<g><path style="opacity:0.842" fill="#000000" d="M 96.5,76.5 C 94.8333,76.5 93.1667,76.5 91.5,76.5C 86.1984,62.7686 82.0317,48.7686 79,34.5C 80.3333,33.1667 81.6667,33.1667 83,34.5C 86.3333,43.8333 89.6667,53.1667 93,62.5C 95.3316,52.5166 97.665,42.5166 100,32.5C 101.011,31.6634 102.178,31.33 103.5,31.5C 102.073,46.6374 99.7393,61.6374 96.5,76.5 Z"/></g>
<g><path style="opacity:0.795" fill="#000000" d="M 130.5,31.5 C 133.518,31.3354 136.518,31.502 139.5,32C 141.283,33.0665 141.783,34.5665 141,36.5C 128.167,36.8373 122,43.5039 122.5,56.5C 118.32,58.163 116.653,56.663 117.5,52C 118.185,42.7847 122.519,35.9514 130.5,31.5 Z"/></g>
<g><path style="opacity:0.101" fill="#555555" d="M 378.5,31.5 C 378.833,31.5 379.167,31.5 379.5,31.5C 377.83,34.105 377.496,34.105 378.5,31.5 Z"/></g>
<g><path style="opacity:0.836" fill="#000000" d="M 162.5,76.5 C 161.167,76.5 159.833,76.5 158.5,76.5C 156.225,72.3845 153.725,68.3845 151,64.5C 150.018,68.5896 148.852,72.5896 147.5,76.5C 146.5,76.5 145.5,76.5 144.5,76.5C 145.604,61.7724 147.271,47.1058 149.5,32.5C 151.167,32.5 152.833,32.5 154.5,32.5C 153.519,40.1539 153.019,47.8205 153,55.5C 156,60.8333 159,66.1667 162,71.5C 162.494,73.1341 162.66,74.8008 162.5,76.5 Z"/></g>
<g><path style="opacity:0.817" fill="#000000" d="M 221.5,32.5 C 227.838,34.6537 230.838,39.1537 230.5,46C 230.526,54.4605 226.859,60.6272 219.5,64.5C 216.918,64.2534 216.085,62.92 217,60.5C 227.021,53.1098 227.855,44.9431 219.5,36C 219.978,34.6974 220.645,33.5307 221.5,32.5 Z"/></g>
<g><path style="opacity:0.845" fill="#000000" d="M 178.5,33.5 C 191.661,31.0003 199.328,36.3336 201.5,49.5C 200.954,61.4273 195.288,69.9273 184.5,75C 180.577,75.7927 176.744,75.626 173,74.5C 172.405,73.1011 172.572,71.7678 173.5,70.5C 183.306,70.9344 190.306,66.7677 194.5,58C 189.103,57.7728 183.769,57.1062 178.5,56C 177.483,54.9505 177.316,53.7839 178,52.5C 183.741,51.5251 189.575,51.1918 195.5,51.5C 194.043,41.5032 188.209,37.1699 178,38.5C 177.36,36.735 177.527,35.0683 178.5,33.5 Z"/></g>
<g><path style="opacity:0.851" fill="#000000" d="M 254.5,76.5 C 252.833,76.5 251.167,76.5 249.5,76.5C 250.085,70.1571 250.751,63.8237 251.5,57.5C 247.119,57.6282 242.785,57.2949 238.5,56.5C 238.485,49.4048 239.319,42.4048 241,35.5C 242.444,33.8446 244.278,33.178 246.5,33.5C 245.553,39.4657 244.886,45.4657 244.5,51.5C 248.833,51.5 253.167,51.5 257.5,51.5C 257.073,59.9175 256.073,68.2508 254.5,76.5 Z"/></g>
<g><path style="opacity:0.823" fill="#000000" d="M 318.5,76.5 C 316.167,76.5 313.833,76.5 311.5,76.5C 308.67,74.1574 306.837,71.1574 306,67.5C 303.672,54.9664 306.838,44.1331 315.5,35C 320.729,32.3786 325.229,33.2119 329,37.5C 332.359,46.9118 332.026,56.2452 328,65.5C 325.686,69.975 322.52,73.6417 318.5,76.5 Z M 318.5,39.5 C 321.808,38.9738 323.974,40.3072 325,43.5C 326.401,51.9866 325.068,59.9866 321,67.5C 318.872,70.4578 316.206,71.1244 313,69.5C 308.782,58.375 310.615,48.375 318.5,39.5 Z"/></g>
<g><path style="opacity:0.826" fill="#000000" d="M 363.5,34.5 C 365.346,34.2222 366.68,34.8888 367.5,36.5C 364.086,42.7453 360.086,48.5786 355.5,54C 358.622,60.8641 360.622,68.0307 361.5,75.5C 359.856,75.7135 358.356,75.3802 357,74.5C 355.7,69.9055 353.867,65.5721 351.5,61.5C 347.964,66.0523 344.297,70.5523 340.5,75C 339.207,75.49 337.873,75.6567 336.5,75.5C 336.491,73.6916 336.991,72.0249 338,70.5C 341.833,64.8333 345.667,59.1667 349.5,53.5C 346.606,47.8198 344.939,41.8198 344.5,35.5C 346.144,35.2865 347.644,35.6198 349,36.5C 350.287,40.3695 351.953,44.0362 354,47.5C 356.998,43.0081 360.165,38.6748 363.5,34.5 Z"/></g>
<g><path style="opacity:0.754" fill="#000000" d="M 158.5,37.5 C 161.833,37.5 165.167,37.5 168.5,37.5C 169.508,42.4921 167.508,44.4921 162.5,43.5C 156.528,44.1398 155.195,42.1398 158.5,37.5 Z"/></g>
<g><path style="opacity:0.752" fill="#000000" d="M 248.5,38.5 C 250.167,38.5 251.833,38.5 253.5,38.5C 253.662,40.5273 253.495,42.5273 253,44.5C 249.752,47.4617 247.585,46.7951 246.5,42.5C 246.752,40.9271 247.418,39.5938 248.5,38.5 Z"/></g>
<g><path style="opacity:0.841" fill="#000000" d="M 131.5,44.5 C 132.833,44.5 134.167,44.5 135.5,44.5C 135.192,53.9905 133.858,63.3239 131.5,72.5C 123.521,73.6649 115.521,73.8316 107.5,73C 106.826,71.2494 106.493,69.5827 106.5,68C 113.492,67.5004 120.492,67.3337 127.5,67.5C 128.727,59.8062 130.06,52.1395 131.5,44.5 Z"/></g>
<g><path style="opacity:0.795" fill="#000000" d="M 50.5,49.5 C 58.0939,49.2623 59.4273,52.0956 54.5,58C 53.2068,58.49 51.8734,58.6567 50.5,58.5C 49.4116,55.4442 49.4116,52.4442 50.5,49.5 Z"/></g>
<g><path style="opacity:0.797" fill="#000000" d="M 243.5,62.5 C 247.143,63.3822 248.31,65.7155 247,69.5C 245.211,71.229 243.044,71.8957 240.5,71.5C 240.129,67.9966 241.129,64.9966 243.5,62.5 Z"/></g>
<g><path style="opacity:0.737" fill="#000000" d="M 74.5,68.5 C 76.5,68.5 78.5,68.5 80.5,68.5C 80.6728,73.3234 78.3394,75.3234 73.5,74.5C 73.5172,72.4352 73.8505,70.4352 74.5,68.5 Z"/></g>
</svg>
