<?xml version="1.0" encoding="UTF-8"?>
<!DOCTYPE svg PUBLIC "-//W3C//DTD SVG 1.1//EN" "http://www.w3.org/Graphics/SVG/1.1/DTD/svg11.dtd">
<svg xmlns="http://www.w3.org/2000/svg" version="1.1" width="410px" height="80px" style="shape-rendering:geometricPrecision; text-rendering:geometricPrecision; image-rendering:optimizeQuality; fill-rule:evenodd; clip-rule:evenodd" xmlns:xlink="http://www.w3.org/1999/xlink">
<g><path style="opacity:0.702" fill="#aaaaaa" d="M 405.5,-0.5 C 406.167,-0.5 406.833,-0.5 407.5,-0.5C 407.427,1.02694 408.094,2.02694 409.5,2.5C 409.5,3.5 409.5,4.5 409.5,5.5C 408.069,7.26825 406.403,7.93491 404.5,7.5C 403.855,8.73207 403.689,10.0654 404,11.5C 403.059,9.93864 401.892,8.60531 400.5,7.5C 393.858,9.93646 392.691,7.93646 397,1.5C 398.418,4.00102 399.418,3.66769 400,0.5C 401.245,0.461464 402.578,0.794797 404,1.5C 405.03,1.16389 405.53,0.497222 405.5,-0.5 Z"/></g>
<g><path style="opacity:0.911" fill="#595959" d="M 379.5,32.5 C 379.167,32.5 378.833,32.5 378.5,32.5C 378.891,28.6166 378.224,24.95 376.5,21.5C 373.669,20.1261 371.336,20.7927 369.5,23.5C 369.55,22.1524 369.217,20.6524 368.5,19C 366.005,18.8425 363.672,18.6759 361.5,18.5C 363.716,12.2852 367.716,7.61852 373.5,4.5C 373.88,6.02072 374.046,7.68739 374,9.5C 377.618,12.4644 380.451,11.7977 382.5,7.5C 383.5,8.16667 384.5,8.83333 385.5,9.5C 386.451,8.67443 387.451,8.50776 388.5,9C 386.76,13.4525 388.427,15.6191 393.5,15.5C 394.167,15.1667 394.833,14.8333 395.5,14.5C 396.23,12.9938 396.563,11.6605 396.5,10.5C 397.971,11.3805 398.804,12.7139 399,14.5C 399.667,19.5 399.667,24.5 399,29.5C 396.333,25.5 393.667,25.5 391,29.5C 390.411,23.5377 387.744,22.2044 383,25.5C 381.295,27.5766 380.128,29.91 379.5,32.5 Z"/></g>
<g><path style="opacity:0.83" fill="#eeeeee" d="M 49.5,5.5 C 51.1992,5.33982 52.8659,5.50649 54.5,6C 53.1242,14.1263 51.7908,22.293 50.5,30.5C 56.5092,30.3338 62.5092,30.5005 68.5,31C 69.6841,32.1803 70.3507,33.6803 70.5,35.5C 68.9898,47.5507 67.1565,59.5507 65,71.5C 64.0475,73.5922 62.7141,73.9255 61,72.5C 61.5171,61.0592 63.0171,49.7259 65.5,38.5C 58.6255,37.4647 51.7921,36.4647 45,35.5C 45.735,25.4201 47.235,15.4201 49.5,5.5 Z"/></g>
<g><path style="opacity:0.772" fill="#eeeeee" d="M 58.5,14.5 C 63.8943,13.5545 65.5609,15.5545 63.5,20.5C 57.7347,22.2515 56.0681,20.2515 58.5,14.5 Z"/></g>
<g><path style="opacity:0.849" fill="#eeeeee" d="M 278.5,24.5 C 281.898,24.1796 285.232,24.513 288.5,25.5C 289.046,26.7722 289.379,28.1055 289.5,29.5C 287.927,41.1796 286.26,52.8463 284.5,64.5C 284.969,67.9246 286.469,68.258 289,65.5C 290.459,61.2002 291.793,56.8669 293,52.5C 294.356,51.6198 295.856,51.2865 297.5,51.5C 297.293,57.3695 296.126,63.0361 294,68.5C 289.49,74.0094 284.49,74.6761 279,70.5C 279.851,57.0577 281.684,43.7244 284.5,30.5C 280.87,29.7265 278.037,31.0598 276,34.5C 275.178,36.7885 274.511,39.1218 274,41.5C 272.644,42.3802 271.144,42.7135 269.5,42.5C 268.795,34.5767 271.795,28.5767 278.5,24.5 Z"/></g>
<g><path style="opacity:0.832" fill="#eeeeee" d="M 213.5,25.5 C 214.833,25.5 216.167,25.5 217.5,25.5C 216.096,40.9257 213.929,56.2591 211,71.5C 208.332,75.5945 206.832,75.0945 206.5,70C 208.565,55.1125 210.898,40.2791 213.5,25.5 Z"/></g>
<g><path style="opacity:0.848" fill="#eeeeee" d="M 100.5,31.5 C 101.833,31.5 103.167,31.5 104.5,31.5C 102.265,46.9086 99.5986,62.242 96.5,77.5C 93.7615,78.0352 91.9282,77.0352 91,74.5C 86.5402,61.9175 82.3735,49.2508 78.5,36.5C 79.4154,34.0197 80.9154,33.3531 83,34.5C 86.4114,43.573 89.9114,52.573 93.5,61.5C 95.8353,51.4811 98.1686,41.4811 100.5,31.5 Z"/></g>
<g><path style="opacity:0.831" fill="#eeeeee" d="M 130.5,31.5 C 133.518,31.3354 136.518,31.502 139.5,32C 141.283,33.0665 141.783,34.5665 141,36.5C 128.151,36.8084 122.151,43.475 123,56.5C 119.276,58.0418 117.443,56.7085 117.5,52.5C 117.85,48.2457 119.016,44.2457 121,40.5C 124.062,37.2678 127.229,34.2678 130.5,31.5 Z"/></g>
<g><path style="opacity:0.842" fill="#eeeeee" d="M 150.5,32.5 C 151.833,32.5 153.167,32.5 154.5,32.5C 153.812,40.1818 153.312,47.8484 153,55.5C 157.022,61.5435 160.522,67.8768 163.5,74.5C 162.307,76.3837 160.641,76.8837 158.5,76C 155.602,72.0954 153.102,67.9287 151,63.5C 150.46,67.8848 149.293,72.0515 147.5,76C 146.552,76.4828 145.552,76.6495 144.5,76.5C 145.662,61.7018 147.662,47.0351 150.5,32.5 Z"/></g>
<g><path style="opacity:0.101" fill="#555555" d="M 378.5,32.5 C 378.833,32.5 379.167,32.5 379.5,32.5C 377.83,35.105 377.496,35.105 378.5,32.5 Z"/></g>
<g><path style="opacity:0.849" fill="#eeeeee" d="M 178.5,33.5 C 192.196,30.7054 199.863,36.2054 201.5,50C 200.706,61.259 195.372,69.5923 185.5,75C 181.245,75.7961 177.079,75.6295 173,74.5C 172.405,73.1011 172.572,71.7678 173.5,70.5C 183.306,70.9344 190.306,66.7677 194.5,58C 189.118,57.6927 183.785,57.026 178.5,56C 177.483,54.9505 177.316,53.7839 178,52.5C 183.741,51.5251 189.575,51.1918 195.5,51.5C 195.652,47.1171 193.985,43.6171 190.5,41C 186.363,39.9378 182.196,39.1045 178,38.5C 177.36,36.735 177.527,35.0683 178.5,33.5 Z"/></g>
<g><path style="opacity:0.828" fill="#eeeeee" d="M 220.5,33.5 C 228.197,34.2198 231.53,38.5532 230.5,46.5C 230.386,54.7367 226.72,60.7367 219.5,64.5C 218.09,64.1322 217.09,63.2989 216.5,62C 218.293,59.2047 220.46,56.7047 223,54.5C 226.898,47.9864 225.898,42.3197 220,37.5C 219.421,36.0715 219.588,34.7382 220.5,33.5 Z"/></g>
<g><path style="opacity:0.839" fill="#eeeeee" d="M 242.5,33.5 C 244.948,33.0847 246.281,34.0847 246.5,36.5C 245.587,41.4719 244.92,46.4719 244.5,51.5C 248.833,51.5 253.167,51.5 257.5,51.5C 257.075,60.568 256.075,69.568 254.5,78.5C 252.833,78.5 251.167,78.5 249.5,78.5C 250.249,71.5084 250.916,64.5084 251.5,57.5C 247.429,57.7662 243.429,57.4328 239.5,56.5C 238.651,48.5951 239.651,40.9284 242.5,33.5 Z"/></g>
<g><path style="opacity:0.84" fill="#eeeeee" d="M 317.5,33.5 C 328,33.3478 332.666,38.6812 331.5,49.5C 331.788,59.7528 328.121,68.2528 320.5,75C 315.587,77.5865 311.42,76.7532 308,72.5C 304.575,62.7583 304.908,53.0917 309,43.5C 310.978,39.3619 313.811,36.0286 317.5,33.5 Z M 318.5,39.5 C 321.056,39.1322 323.056,39.9655 324.5,42C 325.991,49.6196 325.491,57.1196 323,64.5C 321.226,68.9727 318.06,70.8061 313.5,70C 308.678,58.7852 310.344,48.6185 318.5,39.5 Z"/></g>
<g><path style="opacity:0.83" fill="#eeeeee" d="M 363.5,34.5 C 365.346,34.2222 366.68,34.8888 367.5,36.5C 364.086,42.7453 360.086,48.5786 355.5,54C 358.622,60.8641 360.622,68.0307 361.5,75.5C 359.856,75.7135 358.356,75.3802 357,74.5C 355.333,69.8333 353.667,65.1667 352,60.5C 348.287,65.4244 344.454,70.2577 340.5,75C 339.207,75.49 337.873,75.6567 336.5,75.5C 336.491,73.6916 336.991,72.0249 338,70.5C 341.833,64.8333 345.667,59.1667 349.5,53.5C 346.606,47.8198 344.939,41.8198 344.5,35.5C 346.144,35.2865 347.644,35.6198 349,36.5C 350.409,40.3163 352.076,43.9829 354,47.5C 356.998,43.0081 360.165,38.6748 363.5,34.5 Z"/></g>
<g><path style="opacity:0.781" fill="#eeeeee" d="M 158.5,37.5 C 161.833,37.5 165.167,37.5 168.5,37.5C 169.508,42.4921 167.508,44.4921 162.5,43.5C 156.528,44.1398 155.195,42.1398 158.5,37.5 Z"/></g>
<g><path style="opacity:0.749" fill="#eeeeee" d="M 248.5,38.5 C 255.898,39.6586 256.398,42.3253 250,46.5C 245.878,44.6135 245.378,41.9468 248.5,38.5 Z"/></g>
<g><path style="opacity:0.856" fill="#eeeeee" d="M 132.5,44.5 C 133.5,44.5 134.5,44.5 135.5,44.5C 135.41,53.9644 134.243,63.2977 132,72.5C 123.919,73.4825 115.752,73.8158 107.5,73.5C 107.739,71.5328 107.406,69.6995 106.5,68C 113.492,67.5004 120.492,67.3337 127.5,67.5C 128.637,59.6653 130.303,51.9986 132.5,44.5 Z"/></g>
<g><path style="opacity:0.832" fill="#eeeeee" d="M 50.5,49.5 C 58.0939,49.2623 59.4273,52.0956 54.5,58C 53.2068,58.49 51.8734,58.6567 50.5,58.5C 49.4116,55.4442 49.4116,52.4442 50.5,49.5 Z"/></g>
<g><path style="opacity:0.791" fill="#eeeeee" d="M 243.5,62.5 C 244.822,62.33 245.989,62.6634 247,63.5C 248.666,69.3313 246.499,71.998 240.5,71.5C 240.515,68.1209 241.515,65.1209 243.5,62.5 Z"/></g>
<g><path style="opacity:0.777" fill="#eeeeee" d="M 75.5,68.5 C 77.1667,68.5 78.8333,68.5 80.5,68.5C 81.1272,71.8641 79.7939,73.8641 76.5,74.5C 72.8536,73.1999 72.5203,71.1999 75.5,68.5 Z"/></g>
</svg>
